# xmcd
#
# Track frame offsets:
#	150
#	15990
#	30117
#	41887
#	58829
#	78025
#	101388
#	109691
#	124436
#	138546
#	151316
#	163989
#	182396
#
# Disc length: 2610 seconds
# Revision: 0
# Processed by: cddbd v1.5.2PL0 Copyright (c) Steve Scherf et al.
# Submitted via: dBpowerAMP V12.0
#
DISCID=9c0a300d
DTITLE=Robert "Top" Thomas - The Town Crier
DYEAR=2013
DGENRE=Blues
TTITLE0=Mississippi Quickie
TTITLE1=Blues Grass 
TTITLE2=The Same Thing Could Happen To You
TTITLE3=Lazy Little Daisy 
TTITLE4=King Snake Crawl
TTITLE5=Bad Seed 
TTITLE6=What's The Matter Ma?
TTITLE7=Sugar Shop 
TTITLE8=YeeHaw Junction 
TTITLE9=I'm A Freight Train
TTITLE10=Daddy's Gone 
TTITLE11=The Town Crier 
TTITLE12=It Ain't Easy 
EXTD=
EXTT0=
EXTT1=
EXTT2=
EXTT3=
EXTT4=
EXTT5=
EXTT6=
EXTT7=
EXTT8=
EXTT9=
EXTT10=
EXTT11=
EXTT12=
PLAYORDER=
